<svg width="95" height="124" viewBox="0 0 95 124" fill="none" xmlns="http://www.w3.org/2000/svg">
<path d="M73.5 92.281C72.3333 90.4477 73 93.3809 69 97.7809L72.5 112.281C75.3333 114.281 82.8 118.381 84 114.781C84 114.781 90.5 112.281 87 107.281C88.8333 106.114 91 99.281 85.5 96.781C87 91.281 79.5 87.2809 73.5 92.281Z" fill="white" stroke="#B78791" stroke-width="3" stroke-linecap="round"/>
<path d="M19.8637 86.6392C18.926 79.567 20.3324 82.3959 25.958 73.5052L71.4313 73C74.7129 78.3883 82.2137 89.9732 76.5881 93.2062C78.6196 96.0687 80.8073 101.794 76.5881 105.835C77.8382 111.392 79.0259 119.171 73.7753 122H62.993C60.9615 121.663 61.1178 111.897 60.649 110.887C59.2426 111.897 51 115.5 37.2091 111.897C37 98.5 37 118.5 33.4588 120.99H23.1453C21.2701 121.495 17.9885 117.454 19.8637 107.351C18.4573 106.003 16.4883 102.097 19.8637 97.2474C19.0824 95.3952 17.9885 90.6804 19.8637 86.6392Z" fill="white" stroke="#B78791" stroke-width="3"/>
<path d="M42.7661 5.77688C40.0381 4.5554 33.3851 3.77365 28.5969 10.4185C24.9732 10.0521 17.7257 10.8094 17.7257 16.7702C15.3235 16.2816 10.519 16.7213 10.519 22.389C9.0125 22.389 5.99951 23.8059 5.99951 29.4736C5.99951 29.4736 2.67709 32.2586 4.04517 37.5354C2.57939 38.5126 0.527287 41.7128 4.04517 46.6965C2.8644 47.4701 1.21132 49.6525 4.04517 52.1931C1.84651 55.9797 -0.449881 63.8216 7.95388 64.8965C7.506 67.2988 8.44247 72.1033 15.7714 72.1033C15.7714 74.6684 17.4814 79.4077 24.3217 77.8442C25.1768 80.5315 28.0839 85.2708 32.8721 82.7302C34.3786 84.0738 38.4665 85.9549 42.7661 82.7302C44.6797 84.3181 49.9484 86.248 55.7138 81.2644C57.4238 82.4044 61.6257 83.7074 64.7527 79.7986C67.6436 80.7758 73.865 81.24 75.6239 75.2791C78.3926 74.7091 84.3453 71.5658 86.0065 63.5529C86.0065 63.5529 89.6709 60.4015 89.6709 56.1019C94.4347 51.5824 91.1367 46.2079 91.1367 46.2079C94.0683 45.1086 94.1904 38.879 91.1367 37.5354C91.9103 35.5403 92.236 31.1348 87.3501 29.4736C88.3273 26.4606 88.6693 20.4347 82.2199 20.4347C82.2199 17.4624 80.461 11.982 73.4252 13.8387C72.5702 10.2964 68.466 3.72479 58.8896 5.77688C55.0623 2.92676 46.4794 -1.06341 42.7661 5.77688Z" fill="white" stroke="#B78791" stroke-width="3"/>
<path d="M51.1317 55.5215L51.0783 55.6212L51.0774 55.9956C51.0769 56.2019 50.9636 56.5217 50.5143 56.8456C50.0667 57.1684 49.3743 57.4132 48.5425 57.4112C46.8906 57.4072 46.1037 56.469 45.9983 55.7593L45.9525 55.4506L45.8984 55.364C45.9502 55.3199 46.0226 55.2654 46.122 55.2035C46.7098 54.8379 47.6829 54.5656 48.5494 54.5677C49.3555 54.5696 50.2485 54.8693 50.8217 55.2637C50.9702 55.3658 51.0688 55.4548 51.1317 55.5215Z" fill="#B78791" stroke="#B78791" stroke-width="3"/>
<mask id="path-5-inside-1_125_1654" fill="white">
<ellipse cx="37.0822" cy="48.708" rx="2.76509" ry="2.27566" transform="rotate(-13.2636 37.0822 48.708)"/>
</mask>
<ellipse cx="37.0822" cy="48.708" rx="2.76509" ry="2.27566" transform="rotate(-13.2636 37.0822 48.708)" fill="#B78791"/>
<path d="M36.8536 48.7619C36.7591 48.3611 36.9101 48.0837 36.9675 48.0084C37.0199 47.9395 37.0213 47.9782 36.916 48.003L38.2926 53.8429C40.8338 53.2439 43.4814 50.7276 42.6935 47.3853L36.8536 48.7619ZM36.916 48.003C36.8107 48.0278 36.7948 47.9926 36.8724 48.0308C36.9574 48.0726 37.2164 48.2533 37.3109 48.6541L31.4709 50.0307C32.2587 53.373 35.7514 54.4419 38.2926 53.8429L36.916 48.003ZM37.3109 48.6541C37.4053 49.0549 37.2543 49.3323 37.197 49.4076C37.1445 49.4765 37.1431 49.4378 37.2484 49.413L35.8718 43.5731C33.3306 44.1721 30.6831 46.6884 31.4709 50.0307L37.3109 48.6541ZM37.2484 49.413C37.3537 49.3882 37.3697 49.4234 37.292 49.3852C37.2071 49.3434 36.9481 49.1627 36.8536 48.7619L42.6935 47.3853C41.9057 44.043 38.413 42.9741 35.8718 43.5731L37.2484 49.413Z" fill="#B78791" mask="url(#path-5-inside-1_125_1654)"/>
<mask id="path-7-inside-2_125_1654" fill="white">
<ellipse cx="56.5792" cy="48.0737" rx="2.63564" ry="2.11316" transform="rotate(11.2138 56.5792 48.0737)"/>
</mask>
<ellipse cx="56.5792" cy="48.0737" rx="2.63564" ry="2.11316" transform="rotate(11.2138 56.5792 48.0737)" fill="#B78791"/>
<path d="M56.2218 48.0028C56.3167 47.5238 56.6212 47.2982 56.7311 47.2409C56.8346 47.187 56.8425 47.2218 56.7516 47.2037L55.5848 53.0892C57.9977 53.5676 61.4443 52.5132 62.1072 49.1696L56.2218 48.0028ZM56.7516 47.2037C56.6607 47.1857 56.6813 47.1566 56.7564 47.246C56.8362 47.3408 57.0315 47.6655 56.9366 48.1445L51.0511 46.9777C50.3882 50.3213 53.1719 52.6108 55.5848 53.0892L56.7516 47.2037ZM56.9366 48.1445C56.8416 48.6235 56.5371 48.8491 56.4272 48.9064C56.3237 48.9603 56.3158 48.9255 56.4067 48.9436L57.5735 43.0581C55.1606 42.5797 51.714 43.6341 51.0511 46.9777L56.9366 48.1445ZM56.4067 48.9436C56.4976 48.9616 56.477 48.9907 56.4019 48.9013C56.3221 48.8065 56.1268 48.4818 56.2218 48.0028L62.1072 49.1696C62.7701 45.826 59.9864 43.5365 57.5735 43.0581L56.4067 48.9436Z" fill="#B78791" mask="url(#path-7-inside-2_125_1654)"/>
<path d="M35.2242 58.0659C42.6753 47.6833 53.5465 48.6605 61.1196 55.9894" stroke="#B78791" stroke-width="3" stroke-linecap="round"/>
</svg>
