<svg width="559" height="494" viewBox="0 0 559 494" fill="none" xmlns="http://www.w3.org/2000/svg">
<ellipse cx="317" cy="444" rx="229" ry="50" fill="#B78791"/>
<path d="M144.372 399.96C138.038 391.627 126.572 364.76 131.372 323.96L346.872 261.46C360.705 259.46 393.872 259.46 415.872 275.46C421.205 272.46 435.128 268.26 448.154 275.46C447.78 273.979 447.657 272.317 447.872 270.46C449.372 254.627 459.172 227.16 486.372 243.96C496.538 237.627 519.072 231.56 527.872 257.96C540.372 264.127 562.672 281.66 551.872 302.46C554.038 307.294 555.572 317.76 544.372 320.96C544.372 325.96 540.372 335.96 524.372 335.96C524.372 338.127 521.472 342.744 509.872 343.879C513.054 359.054 515.369 380.411 509.872 394.46L506.872 438.96C508.372 443.794 507.572 455.26 492.372 462.46H461.372C455.872 457.46 446.272 441.36 451.872 416.96L444.872 409.848L427.411 403.746C429.025 415.724 428.141 442.469 411.872 455.96H374.372C368.205 452.794 357.472 442.66 363.872 427.46L365.372 412.409C343.237 415.95 315.646 417.187 289.622 410.71L287.372 432.46C286.538 440.127 279.872 456.86 259.872 462.46H227.872C225.038 459.46 220.172 450.56 223.372 438.96V410.96L203.372 403.46C203.038 415.96 199.072 443.46 185.872 453.46H154.872C148.205 452.96 135.172 448.06 136.372 432.46L144.372 424.46V399.96Z" fill="white"/>
<path d="M291.872 388.96L289.622 410.71M289.622 410.71L287.372 432.46C286.538 440.127 279.872 456.86 259.872 462.46H227.872C225.038 459.46 220.172 450.56 223.372 438.96V410.96L203.372 403.46C203.038 415.96 199.072 443.46 185.872 453.46H154.872C148.205 452.96 135.172 448.06 136.372 432.46L144.372 424.46V399.96C138.038 391.627 126.572 364.76 131.372 323.96L346.872 261.46C360.705 259.46 393.872 259.46 415.872 275.46C421.205 272.46 435.128 268.26 448.154 275.46M289.622 410.71C315.646 417.187 343.237 415.95 365.372 412.409M378.872 409.848C388.258 407.781 396.021 405.449 401.372 403.46L378.872 409.848ZM378.872 409.848C374.673 410.773 370.149 411.645 365.372 412.409M365.372 412.409L363.872 427.46C357.472 442.66 368.205 452.794 374.372 455.96H411.872C428.272 442.36 429.038 415.294 427.372 403.46L420.872 401.46L444.872 409.848L451.872 416.96C446.272 441.36 455.872 457.46 461.372 462.46H492.372C507.572 455.26 508.372 443.794 506.872 438.96L509.872 394.46C515.369 380.411 513.054 359.054 509.872 343.879M506.872 331.96C507.817 335.073 508.886 339.18 509.872 343.879M509.872 343.879C521.472 342.744 524.372 338.127 524.372 335.96C540.372 335.96 544.372 325.96 544.372 320.96C555.572 317.76 554.038 307.294 551.872 302.46C562.672 281.66 540.372 264.127 527.872 257.96C519.072 231.56 496.538 237.627 486.372 243.96C459.172 227.16 449.372 254.627 447.872 270.46C447.657 272.317 447.78 273.979 448.154 275.46M460.872 285.96C456.901 285.276 449.872 282.275 448.154 275.46" stroke="#B78791" stroke-width="7"/>
<path d="M170.872 19.4602C159.705 14.4602 132.472 11.2602 112.872 38.4602C98.0382 36.9602 68.3716 40.0603 68.3716 64.4603C58.5382 62.4603 38.8716 64.2603 38.8716 87.4603C32.7049 87.4603 20.3716 93.2603 20.3716 116.46C20.3716 116.46 6.77161 127.86 12.3717 149.46C6.37166 153.46 -2.02839 166.56 12.3717 186.96C7.53833 190.127 0.771605 199.06 12.3717 209.46C3.3717 224.96 -6.02833 257.06 28.3716 261.46C26.5382 271.294 30.3716 290.96 60.3716 290.96C60.3716 301.46 67.3716 320.86 95.3716 314.46C98.8716 325.46 110.772 344.86 130.372 334.46C136.538 339.96 153.272 347.66 170.872 334.46C178.705 340.96 200.272 348.86 223.872 328.46C230.872 333.127 248.072 338.46 260.872 322.46C272.705 326.46 298.172 328.36 305.372 303.96C316.705 301.627 341.072 288.76 347.872 255.96C347.872 255.96 362.872 243.06 362.872 225.46C382.372 206.96 368.872 184.96 368.872 184.96C380.872 180.46 381.372 154.96 368.872 149.46C372.038 141.294 373.372 123.26 353.372 116.46C357.372 104.127 358.772 79.4603 332.372 79.4603C332.372 67.2936 325.172 44.8603 296.372 52.4603C292.872 37.9603 276.072 11.0603 236.872 19.4602C221.205 7.79358 186.072 -8.53975 170.872 19.4602Z" fill="white" stroke="#B78791" stroke-width="7"/>
<path d="M210.592 224.804L210.534 224.914L210.533 225.039C210.526 228.141 208.785 230.99 205.887 233.08C202.99 235.169 198.966 236.471 194.503 236.46C185.581 236.438 179.451 231.131 178.523 224.886L178.508 224.784L178.453 224.695C177.532 223.218 177.508 221.842 178.085 220.577C178.677 219.28 179.924 218.055 181.63 216.994C185.038 214.874 190.084 213.529 194.559 213.54C199.013 213.551 203.775 215.134 207.043 217.383C208.678 218.507 209.903 219.774 210.545 221.055C211.179 222.318 211.245 223.586 210.592 224.804Z" fill="#B78791" stroke="#B78791"/>
<path d="M158.135 192.712C159.232 197.366 155.536 202.381 149.628 203.774C143.719 205.167 138.172 202.331 137.075 197.676C135.978 193.022 139.674 188.007 145.583 186.614C151.491 185.221 157.038 188.058 158.135 192.712Z" fill="#B78791" stroke="#B78791"/>
<path d="M237.506 194.599C236.65 198.918 231.509 201.718 225.829 200.592C220.148 199.466 216.465 194.917 217.321 190.597C218.178 186.277 223.318 183.477 228.999 184.603C234.679 185.73 238.362 190.279 237.506 194.599Z" fill="#B78791" stroke="#B78791"/>
<path d="M140 233.5C170.5 191 215 195 246 225" stroke="#B78791" stroke-width="7" stroke-linecap="round"/>
</svg>
