<svg width="101" height="109" viewBox="0 0 101 109" fill="none" xmlns="http://www.w3.org/2000/svg">
<path d="M85.4218 86.0862C85.2535 84.5338 86.0383 77.5984 82 73.5L52.1055 78.7944L54.6295 95.2236C50.7744 97.5128 50.0534 100.212 60.1821 102.081C61.5282 103.323 62.7062 108.601 73.8116 104.41C79.3643 105.341 80.9218 101.919 85.4218 100C85.4218 100 92.5 96 85.4218 86.0862Z" fill="white"/>
<path d="M76.3355 84.8489C73.3068 86.0862 72.802 85.3146 69.2684 87.6433C67.8516 87.7904 63.7645 86.3994 62.2013 90.4376C59.3146 91.2482 56.9224 93.862 54.6295 95.2236M54.6295 95.2236C50.7744 97.5128 50.0534 100.212 60.1821 102.081C61.5282 103.323 62.7062 108.601 73.8116 104.41C79.3643 105.341 80.9218 101.919 85.4218 100C85.4218 100 92.5 96 85.4218 86.0862C85.2535 84.5338 86.0383 77.5984 82 73.5L52.1055 78.7944L54.6295 95.2236Z" stroke="#B78791" stroke-width="3"/>
<path d="M50.3203 5.18938C47.6481 3.87509 41.0542 2.86311 36.0568 9.32952C32.4632 8.83758 25.224 9.34125 25.0159 15.2915C22.6422 14.7202 17.8453 14.9919 17.6474 20.6495C16.1481 20.5971 13.1001 21.9066 12.9022 27.5642C12.9022 27.5642 9.49838 30.2286 10.6757 35.5437C9.18277 36.4681 7.02873 39.5913 10.3558 44.6886C9.15363 45.4197 7.43225 47.5407 10.1638 50.1755C7.84347 53.8789 5.28424 61.627 13.6103 62.9925C13.0807 65.3749 13.8449 70.2035 21.1387 70.4587C21.0491 73.0192 22.5855 77.8097 29.4477 76.4871C30.2048 79.1994 32.9326 84.0316 37.7866 81.6621C39.239 83.0558 43.2416 85.0758 47.6333 82.0065C49.4823 83.6583 54.6584 85.7682 60.5702 80.9941C62.2323 82.1917 66.3686 83.6385 69.6171 79.8456C72.46 80.9217 78.6355 81.6016 80.5941 75.7125C83.3695 75.2399 89.4034 72.3094 91.3365 64.3685C91.3365 64.3685 95.0935 61.3502 95.2436 57.0582C100.142 52.7126 97.0478 47.2328 97.0478 47.2328C100.004 46.2375 100.343 40.0232 97.3507 38.5756C98.1902 36.611 98.6683 32.2246 93.8637 30.3963C94.9414 27.4226 95.4922 21.4192 89.0736 21.1947C89.1774 18.2277 87.6183 12.6958 80.5514 14.3042C79.8241 10.7384 75.969 4.03561 66.3668 5.75068C62.6573 2.77237 54.2547 -1.50954 50.3203 5.18938Z" fill="white" stroke="#B78791" stroke-width="3"/>
<path d="M45.1303 56.749L45.1838 56.8681L45.1719 56.9984C45.118 57.589 45.4126 58.2085 46.0453 58.7299C46.6759 59.2495 47.6052 59.6335 48.6862 59.7265C50.8546 59.9132 52.3327 58.824 52.6531 57.5634L52.6798 57.4584L52.7475 57.3736C52.9367 57.1367 52.9461 56.9442 52.8756 56.7547C52.7905 56.5262 52.5658 56.254 52.1804 55.9777C51.4154 55.4291 50.217 55.0071 49.1254 54.9131C48.0527 54.8208 46.8666 55.0831 46.0408 55.5213C45.6263 55.7413 45.344 55.9837 45.1985 56.2062C45.0662 56.4086 45.0528 56.5765 45.1303 56.749Z" fill="#B78791" stroke="#B78791"/>
<path d="M58.3278 49.4177C58.0372 50.2467 58.6503 51.3891 60.0277 51.8275C61.4051 52.2659 62.6154 51.7039 62.9059 50.8749C63.1964 50.0459 62.5834 48.9036 61.206 48.4651C59.8286 48.0267 58.6183 48.5887 58.3278 49.4177Z" fill="#B78791" stroke="#B78791"/>
<path d="M35.9771 49.1231C36.0552 49.509 36.3378 49.855 36.7994 50.0842C37.2614 50.3136 37.8773 50.4088 38.5327 50.2868C39.1881 50.1648 39.7222 49.8556 40.0612 49.4771C40.3999 49.099 40.5271 48.6767 40.449 48.2909C40.3709 47.905 40.0883 47.559 39.6267 47.3298C39.1647 47.1004 38.5488 47.0052 37.8934 47.1272C37.238 47.2492 36.704 47.5584 36.3649 47.9369C36.0262 48.315 35.8991 48.7373 35.9771 49.1231Z" fill="#B78791" stroke="#B78791"/>
<path d="M62.3184 57.479C53.8218 47.6813 42.4579 49.451 34.9672 57.3069" stroke="#B78791" stroke-width="3" stroke-linecap="round"/>
<rect y="69" width="61" height="40" rx="2" fill="#B78791"/>
<path d="M20.0114 95V83.3636H24.6023C25.4848 83.3636 26.2367 83.5322 26.858 83.8693C27.4792 84.2027 27.9527 84.6667 28.2784 85.2614C28.608 85.8523 28.7727 86.5341 28.7727 87.3068C28.7727 88.0795 28.6061 88.7614 28.2727 89.3523C27.9394 89.9432 27.4564 90.4034 26.8239 90.733C26.1951 91.0625 25.4337 91.2273 24.5398 91.2273H21.6136V89.2557H24.142C24.6155 89.2557 25.0057 89.1742 25.3125 89.0114C25.6231 88.8447 25.8542 88.6155 26.0057 88.3239C26.161 88.0284 26.2386 87.6894 26.2386 87.3068C26.2386 86.9205 26.161 86.5833 26.0057 86.2955C25.8542 86.0038 25.6231 85.7784 25.3125 85.6193C25.0019 85.4564 24.608 85.375 24.1307 85.375H22.4716V95H20.0114ZM40.6378 87.4375H38.1491C38.1037 87.1155 38.0109 86.8295 37.8707 86.5795C37.7306 86.3258 37.5507 86.1098 37.331 85.9318C37.1113 85.7538 36.8575 85.6174 36.5696 85.5227C36.2855 85.428 35.9768 85.3807 35.6435 85.3807C35.0412 85.3807 34.5166 85.5303 34.0696 85.8295C33.6226 86.125 33.276 86.5568 33.0298 87.125C32.7836 87.6894 32.6605 88.375 32.6605 89.1818C32.6605 90.0114 32.7836 90.7083 33.0298 91.2727C33.2798 91.8371 33.6283 92.2633 34.0753 92.5511C34.5223 92.839 35.0393 92.983 35.6264 92.983C35.956 92.983 36.2609 92.9394 36.5412 92.8523C36.8253 92.7652 37.0772 92.6383 37.2969 92.4716C37.5166 92.3011 37.6984 92.0947 37.8423 91.8523C37.9901 91.6098 38.0923 91.3333 38.1491 91.0227L40.6378 91.0341C40.5734 91.5682 40.4124 92.0833 40.1548 92.5795C39.901 93.072 39.5582 93.5133 39.1264 93.9034C38.6984 94.2898 38.187 94.5966 37.5923 94.8239C37.0014 95.0473 36.3329 95.1591 35.5866 95.1591C34.5488 95.1591 33.6207 94.9242 32.8026 94.4545C31.9882 93.9848 31.3442 93.3049 30.8707 92.4148C30.401 91.5246 30.1662 90.447 30.1662 89.1818C30.1662 87.9129 30.4048 86.8333 30.8821 85.9432C31.3594 85.053 32.0071 84.375 32.8253 83.9091C33.6435 83.4394 34.5639 83.2045 35.5866 83.2045C36.2609 83.2045 36.8859 83.2992 37.4616 83.4886C38.0412 83.678 38.5545 83.9545 39.0014 84.3182C39.4484 84.678 39.812 85.1193 40.0923 85.642C40.3764 86.1648 40.5582 86.7633 40.6378 87.4375Z" fill="white"/>
</svg>
